<svg xmlns="http://www.w3.org/2000/svg" viewBox="0 0 859.01 133.01" width="859" height="133" role="img" aria-label="Indra &amp; Daniel">
  <title>Indra &amp; Daniel</title>
  <g>
    <path d="M62.57 56.91 A46.14 46.14 0 0 0 91.92 109.87" fill="none" stroke="#c3d0bf" stroke-width="1.15" stroke-linecap="round" opacity="0.75"/>
    <ellipse cx="56.82" cy="61.90" rx="9.51" ry="6.66" fill="#dbe3d6" opacity="0.92" transform="rotate(-240.8 56.82 61.90)"/>
    <ellipse cx="66.57" cy="72.65" rx="8.76" ry="6.13" fill="#c3d0bf" opacity="0.88" transform="rotate(-302.5 66.57 72.65)"/>
    <ellipse cx="61.12" cy="85.48" rx="8.00" ry="5.60" fill="#c3d0bf" opacity="0.82" transform="rotate(-268.2 61.12 85.48)"/>
    <ellipse cx="73.35" cy="91.31" rx="7.24" ry="5.07" fill="#dbe3d6" opacity="0.77" transform="rotate(-329.8 73.35 91.31)"/>
    <ellipse cx="75.54" cy="104.16" rx="6.49" ry="4.54" fill="#c3d0bf" opacity="0.72" transform="rotate(-295.5 75.54 104.16)"/>
    <ellipse cx="88.22" cy="105.02" rx="5.73" ry="4.01" fill="#c3d0bf" opacity="0.68" transform="rotate(-357.2 88.22 105.02)"/>
    <path d="M198.98 56.91 A46.14 46.14 0 0 1 169.63 109.87" fill="none" stroke="#c3d0bf" stroke-width="1.15" stroke-linecap="round" opacity="0.75"/>
    <ellipse cx="204.73" cy="61.90" rx="9.51" ry="6.66" fill="#dbe3d6" opacity="0.92" transform="rotate(-71.2 204.73 61.90)"/>
    <ellipse cx="194.98" cy="72.65" rx="8.76" ry="6.13" fill="#c3d0bf" opacity="0.88" transform="rotate(-105.5 194.98 72.65)"/>
    <ellipse cx="200.43" cy="85.48" rx="8.00" ry="5.60" fill="#c3d0bf" opacity="0.82" transform="rotate(-43.8 200.43 85.48)"/>
    <ellipse cx="188.20" cy="91.31" rx="7.24" ry="5.07" fill="#dbe3d6" opacity="0.77" transform="rotate(-78.2 188.20 91.31)"/>
    <ellipse cx="186.01" cy="104.16" rx="6.49" ry="4.54" fill="#c3d0bf" opacity="0.72" transform="rotate(-16.5 186.01 104.16)"/>
    <ellipse cx="173.33" cy="105.02" rx="5.73" ry="4.01" fill="#c3d0bf" opacity="0.68" transform="rotate(-50.8 173.33 105.02)"/>
  </g>
  <g fill="none" stroke-width="4.12">
    <circle cx="107.70" cy="66.50" r="41.20" stroke="#d9bd78"/>
    <circle cx="153.85" cy="66.50" r="41.20" stroke="#eed9a6"/>
    <clipPath id="knoth"><circle cx="130.78" cy="32.37" r="13.18"/></clipPath>
    <circle cx="107.70" cy="66.50" r="41.20" stroke="#d9bd78" clip-path="url(#knoth)"/>
  </g>
  <path transform="translate(278.11 98.60)" fill="#f8f5ef" d="M33.6 19.4Q26.5 19.4 20.1 17.4Q13.7 15.3 8.8 11.7Q3.8 8.0 1.0 3.2Q-1.9 -1.6 -1.9 -7.1Q-1.9 -12.8 -0.3 -17.1Q1.2 -21.3 3.4 -24.1Q5.6 -26.9 7.7 -28.4Q10.1 -30.1 12.0 -30.8Q13.9 -31.4 14.3 -31.4Q14.9 -31.4 14.9 -30.9Q14.9 -30.4 14.4 -30.1Q9.2 -27.0 6.5 -21.4Q3.7 -15.7 3.7 -9.4Q3.7 -4.6 5.5 -0.1Q7.2 4.5 10.9 8.2Q14.6 12.0 20.6 14.2Q26.6 16.4 35.1 16.4Q41.4 16.4 47.2 13.8Q53.1 11.1 58.3 6.8Q63.5 2.4 68.0 -2.9Q72.5 -8.2 76.1 -13.5Q79.7 -18.8 82.2 -23.3Q87.0 -31.8 90.4 -40.1Q93.8 -48.5 97.2 -56.6Q100.5 -64.7 105.2 -72.4Q100.6 -71.6 95.6 -70.5Q90.6 -69.3 85.8 -67.5Q81.0 -65.8 77.1 -63.2Q73.2 -60.6 70.9 -57.0Q68.6 -53.3 68.6 -48.4Q68.6 -44.4 70.7 -42.1Q72.8 -39.7 76.5 -39.7Q78.8 -39.7 81.2 -41.1Q83.5 -42.5 85.2 -45.0Q86.8 -47.6 86.8 -51.2Q86.8 -52.7 86.5 -53.6Q86.2 -54.4 86.0 -54.8Q86.0 -55.2 86.2 -55.6Q86.5 -56.0 86.9 -56.0Q87.8 -56.0 88.2 -54.2Q88.7 -52.5 88.7 -51.4Q88.7 -47.8 87.2 -44.6Q85.6 -41.4 82.6 -39.4Q79.5 -37.4 75.0 -37.4Q70.1 -37.4 66.7 -40.5Q63.2 -43.6 63.2 -48.8Q63.2 -53.8 66.0 -57.8Q68.7 -61.7 73.3 -64.7Q78.0 -67.6 83.7 -69.7Q89.4 -71.8 95.4 -73.1Q101.4 -74.4 106.8 -75.1Q108.3 -78.2 111.0 -80.9Q113.6 -83.6 117.0 -83.6Q118.4 -83.6 119.3 -82.9Q120.2 -82.2 120.2 -80.7Q120.2 -78.9 118.9 -77.5Q117.6 -76.1 115.6 -75.2Q113.6 -74.2 111.7 -73.7Q109.7 -73.1 108.3 -72.9Q104.0 -65.0 101.3 -57.5Q98.7 -50.0 96.6 -42.8Q94.4 -35.5 91.4 -28.3Q87.1 -18.2 81.6 -9.5Q76.0 -0.8 69.0 5.7Q61.9 12.2 53.1 15.8Q44.3 19.4 33.6 19.4ZM110.0 -75.5Q113.9 -76.3 115.2 -77.3Q116.6 -78.3 116.6 -79.1Q116.6 -80.4 115.5 -80.4Q114.2 -80.4 112.7 -79.1Q111.1 -77.8 110.0 -75.5ZM88.0 0.8Q91.6 -6.5 94.9 -13.7Q98.2 -20.8 101.7 -27.3Q103.7 -30.9 105.1 -32.4Q106.5 -33.8 108.8 -33.8Q109.6 -33.8 110.5 -33.6Q111.4 -33.3 112.3 -33.3Q112.9 -33.3 113.2 -33.4Q111.8 -32.6 109.6 -29.5Q107.3 -26.3 105.0 -22.2Q102.7 -18.1 100.9 -14.5Q102.8 -16.8 104.9 -19.1Q107.0 -21.4 109.5 -23.5Q111.9 -25.6 115.2 -27.9Q118.6 -30.1 121.8 -31.6Q125.0 -33.1 126.9 -33.1Q127.6 -33.1 127.9 -33.0Q127.9 -33.0 126.8 -31.1Q125.7 -29.1 124.1 -26.0Q122.4 -22.8 120.7 -19.2Q119.0 -15.7 117.7 -12.5Q116.3 -9.2 115.9 -7.0Q115.6 -5.7 115.6 -4.6Q115.6 -3.0 116.2 -2.5Q116.8 -2.0 117.5 -2.0Q119.4 -2.0 121.4 -3.7Q123.4 -5.4 125.2 -8.1Q127.1 -10.7 128.7 -13.7Q130.3 -16.7 131.4 -19.3Q132.6 -19.3 132.6 -18.4Q131.5 -15.7 129.8 -12.5Q128.2 -9.2 126.1 -6.3Q124.1 -3.4 121.6 -1.5Q119.1 0.4 116.2 0.4Q114.2 0.4 112.1 -1.0Q109.9 -2.4 109.9 -6.2Q109.9 -7.3 110.1 -8.6Q110.3 -9.8 110.8 -11.3Q111.6 -13.3 112.7 -15.6Q113.8 -17.9 116.3 -21.9Q117.0 -23.0 117.2 -23.6Q117.3 -24.2 117.3 -24.6Q117.3 -25.8 116.2 -25.8Q115.3 -25.8 113.6 -24.8Q111.8 -23.8 109.2 -21.3Q106.7 -18.9 103.2 -14.5Q99.8 -10.1 95.3 -1.5Q94.6 -0.2 93.8 -0.1Q92.9 0.0 91.4 0.1Q90.4 0.2 89.5 0.2Q88.6 0.3 88.0 0.8ZM154.3 0.0Q150.9 0.0 149.3 -2.3Q147.7 -4.6 147.7 -7.7Q147.7 -8.6 147.8 -9.6Q147.9 -10.5 148.2 -11.5Q146.8 -9.3 144.9 -6.7Q143.1 -4.0 140.8 -2.0Q138.4 -0.1 135.5 -0.1Q134.2 -0.1 132.6 -0.7Q130.9 -1.3 129.7 -3.0Q128.4 -4.7 128.4 -8.0Q128.4 -12.3 130.3 -17.1Q132.2 -21.9 135.5 -26.2Q138.8 -30.4 143.0 -33.1Q147.2 -35.7 151.7 -35.7Q155.3 -35.7 158.5 -33.8Q160.0 -36.6 161.7 -40.0Q163.4 -43.5 165.1 -46.9Q166.8 -50.3 168.1 -53.2Q169.4 -56.0 170.1 -57.5Q171.6 -61.0 172.9 -62.0Q174.3 -62.9 176.2 -62.9Q177.3 -62.9 178.7 -62.7Q180.0 -62.4 181.3 -62.5Q180.8 -62.0 179.0 -59.2Q177.2 -56.4 174.6 -52.0Q172.0 -47.5 169.1 -42.2Q166.1 -36.9 163.2 -31.4Q160.4 -25.8 158.0 -20.7Q155.6 -15.6 154.2 -11.7Q152.8 -7.8 152.8 -5.8Q152.8 -4.5 153.4 -3.5Q154.0 -2.6 155.4 -2.6Q157.3 -2.6 159.3 -4.5Q161.3 -6.4 163.2 -9.2Q165.0 -12.1 166.4 -14.9Q167.9 -17.6 168.6 -19.3Q169.8 -19.3 169.8 -18.4Q168.9 -16.3 167.4 -13.2Q165.9 -10.1 163.9 -7.1Q161.9 -4.1 159.4 -2.1Q157.0 0.0 154.3 0.0ZM136.2 -3.0Q137.6 -3.0 139.7 -4.6Q141.8 -6.1 144.2 -9.5Q147.0 -13.5 150.6 -19.5Q154.2 -25.5 157.7 -32.2Q157.0 -32.8 156.2 -33.1Q155.4 -33.4 154.0 -33.4Q151.7 -33.4 148.9 -31.4Q146.2 -29.5 143.4 -26.4Q140.7 -23.3 138.4 -19.7Q136.2 -16.1 134.8 -12.8Q133.5 -9.4 133.5 -7.0Q133.5 -3.0 136.2 -3.0ZM168.7 -19.6Q169.5 -21.3 170.8 -25.1Q172.1 -28.8 173.5 -33.4Q174.9 -38.0 175.6 -42.1Q175.9 -43.7 176.7 -44.5Q177.5 -45.2 178.4 -45.2Q179.7 -45.2 180.8 -44.0Q181.9 -42.7 181.9 -40.4Q181.9 -37.6 180.3 -35.6Q178.6 -33.6 176.2 -31.8Q177.2 -31.7 178.3 -31.7Q179.4 -31.6 180.7 -31.6Q185.4 -31.6 190.0 -32.2Q190.2 -31.6 190.2 -31.3Q190.2 -30.0 189.5 -28.0Q188.7 -26.0 187.9 -24.4Q187.5 -23.5 186.3 -21.1Q185.1 -18.8 183.7 -15.9Q182.3 -12.9 181.4 -10.1Q180.4 -7.2 180.4 -5.2Q180.4 -2.6 182.4 -2.6Q184.3 -2.6 187.7 -7.0Q191.1 -11.5 194.5 -19.3Q195.7 -19.3 195.7 -18.4Q194.6 -15.7 193.0 -12.5Q191.3 -9.3 189.3 -6.5Q187.3 -3.6 185.0 -1.8Q182.7 0.1 180.2 0.1Q178.3 0.1 176.4 -1.4Q174.5 -3.0 174.5 -6.5Q174.5 -9.6 175.7 -12.6Q176.9 -15.5 178.4 -18.1Q179.9 -20.7 181.1 -22.7Q182.3 -24.7 182.3 -25.9Q182.3 -27.7 180.1 -28.5Q177.8 -29.3 174.2 -29.4Q172.4 -24.8 171.5 -22.6Q170.6 -20.4 169.8 -18.4Q168.2 -18.4 168.7 -19.6ZM216.2 0.3Q213.9 0.3 212.2 -1.0Q210.4 -2.3 210.4 -6.3Q210.4 -8.0 210.7 -9.5Q210.9 -11.0 211.3 -12.7Q210.4 -11.2 208.8 -9.0Q207.2 -6.8 205.2 -4.7Q203.3 -2.6 201.2 -1.2Q199.2 0.2 197.4 0.2Q194.8 0.2 193.2 -2.1Q191.6 -4.5 191.6 -8.3Q191.6 -12.4 193.5 -17.1Q195.4 -21.8 198.7 -26.1Q202.0 -30.4 206.3 -33.1Q210.6 -35.8 215.3 -35.8Q217.6 -35.8 219.7 -35.1Q221.8 -34.3 223.4 -32.6Q224.1 -31.9 224.1 -31.0Q224.1 -30.4 223.6 -30.0Q223.1 -29.6 222.3 -29.8Q221.2 -33.3 217.6 -33.3Q215.9 -33.3 213.7 -32.2Q211.0 -30.8 208.0 -27.8Q204.9 -24.7 202.3 -20.9Q199.6 -17.0 197.9 -13.1Q196.2 -9.2 196.2 -6.0Q196.2 -2.7 198.7 -2.7Q200.9 -2.7 203.3 -4.8Q205.6 -6.9 207.8 -10.1Q209.9 -13.2 211.7 -16.3Q213.5 -19.4 214.5 -21.3Q216.0 -24.0 217.3 -25.8Q218.6 -27.6 221.0 -27.6Q222.1 -27.6 223.2 -27.3Q224.3 -27.0 225.5 -27.2Q222.5 -24.2 220.3 -20.1Q218.0 -16.0 216.8 -12.1Q215.6 -8.1 215.6 -5.4Q215.6 -2.4 217.6 -2.4Q219.2 -2.4 221.1 -4.2Q222.9 -6.0 224.7 -8.8Q226.4 -11.5 227.9 -14.3Q229.4 -17.2 230.3 -19.3Q230.8 -19.3 231.2 -19.2Q231.5 -19.1 231.5 -18.4Q231.4 -18.0 231.2 -17.6Q230.9 -17.1 230.4 -16.0Q229.6 -14.4 228.2 -11.7Q226.8 -9.0 224.9 -6.2Q223.0 -3.5 220.8 -1.6Q218.6 0.3 216.2 0.3ZM267.8 4.5Q259.3 4.5 253.7 1.9Q248.1 -0.8 245.3 -5.2Q242.6 -9.5 242.6 -14.4Q242.6 -19.9 245.9 -25.4Q249.2 -30.8 255.8 -34.8Q262.3 -38.7 271.8 -39.7Q270.4 -41.6 269.7 -44.0Q269.0 -46.5 269.0 -48.7Q269.1 -54.0 272.0 -58.0Q274.9 -62.1 279.4 -64.9Q284.0 -67.7 289.2 -69.2Q294.4 -70.6 299.0 -70.6Q301.8 -70.6 304.7 -69.9Q307.6 -69.1 309.6 -67.2Q311.6 -65.3 311.6 -61.8Q311.6 -58.9 309.8 -56.6Q308.0 -54.3 305.4 -54.3Q303.5 -54.3 302.1 -55.7Q300.7 -57.1 300.7 -58.9Q300.7 -61.0 302.0 -62.4Q303.4 -63.7 305.4 -63.7Q306.3 -63.7 307.5 -63.1Q308.6 -62.5 308.9 -61.9Q309.0 -62.3 309.0 -63.0Q309.0 -65.7 306.8 -66.8Q304.6 -67.9 302.1 -67.9Q298.1 -67.9 292.8 -66.0Q287.5 -64.0 282.5 -59.6Q280.7 -58.0 278.8 -55.4Q276.9 -52.8 275.6 -49.9Q274.3 -46.9 274.3 -43.9Q274.3 -41.6 275.1 -39.9Q276.6 -39.9 278.6 -40.1Q280.5 -40.2 282.6 -40.2Q285.2 -40.2 286.7 -39.1Q288.2 -38.0 288.2 -36.6Q288.2 -35.6 287.0 -34.7Q285.8 -33.8 283.2 -33.8Q279.9 -33.8 277.2 -35.2Q274.6 -36.7 273.1 -38.2Q266.5 -37.3 261.9 -33.3Q257.3 -29.3 254.9 -23.9Q252.5 -18.4 252.5 -13.0Q252.5 -8.7 254.2 -5.0Q255.8 -1.3 259.2 1.0Q262.6 3.2 267.8 3.2Q273.2 3.2 277.6 1.2Q282.1 -0.7 285.3 -3.8Q288.5 -6.9 290.2 -10.4Q292.0 -13.8 292.0 -16.8Q292.0 -19.4 290.1 -21.2Q288.3 -22.9 285.3 -23.8Q282.3 -24.6 278.9 -24.6Q275.4 -24.6 271.9 -23.7Q268.5 -22.7 266.1 -20.8Q263.7 -18.8 263.2 -15.8Q263.2 -15.6 263.1 -15.4Q263.1 -15.1 263.1 -14.9Q263.1 -12.7 264.8 -10.6Q266.4 -8.4 269.9 -6.6Q270.8 -6.2 270.8 -5.1Q270.8 -4.0 269.8 -4.5Q264.3 -7.4 261.8 -10.9Q259.2 -14.3 259.2 -17.4Q259.2 -21.9 264.0 -25.2Q268.9 -28.4 277.9 -28.4H295.6Q297.2 -28.4 300.4 -29.1Q303.5 -29.8 306.8 -31.1Q310.1 -32.5 312.5 -34.4Q314.8 -36.2 314.8 -38.6Q314.8 -39.9 313.9 -41.4Q313.7 -41.7 313.7 -42.1Q313.7 -42.7 314.2 -42.7Q314.6 -42.7 314.9 -42.2Q316.4 -40.0 316.4 -37.7Q316.4 -35.0 314.4 -32.7Q312.5 -30.4 309.2 -28.7Q305.9 -26.9 301.9 -26.0Q297.8 -25.1 293.6 -25.2Q295.5 -23.6 296.4 -21.6Q297.3 -19.6 297.3 -17.4Q297.3 -13.7 295.1 -9.9Q292.9 -6.0 288.9 -2.8Q284.9 0.5 279.5 2.5Q274.2 4.5 267.8 4.5ZM283.2 -35.5Q286.5 -35.5 286.5 -36.8Q286.5 -37.3 285.6 -37.9Q284.8 -38.4 283.4 -38.5Q282.8 -38.6 281.4 -38.6Q280.0 -38.6 278.4 -38.6Q276.9 -38.6 275.9 -38.6Q278.4 -35.5 283.2 -35.5ZM339.2 4.3Q335.1 4.3 331.4 3.1Q327.7 1.9 325.4 -0.5Q323.0 -2.9 323.0 -6.5Q323.0 -10.2 326.2 -13.2Q329.5 -16.2 335.5 -16.2Q341.8 -16.2 347.5 -13.3Q353.1 -10.5 359.4 -7.2Q364.7 -12.3 368.9 -19.1Q373.0 -25.8 376.9 -33.3Q380.7 -40.8 384.8 -48.2Q388.9 -55.7 394.0 -62.1Q394.9 -63.2 395.8 -64.3Q396.7 -65.5 397.7 -66.6Q392.3 -69.8 386.1 -71.5Q379.9 -73.3 373.3 -73.3Q365.1 -73.3 358.1 -71.2Q351.1 -69.1 346.0 -65.6Q340.8 -62.0 337.9 -57.5Q335.0 -53.1 335.0 -48.4Q335.0 -44.2 336.8 -41.5Q338.5 -38.7 341.2 -37.4Q343.9 -36.1 346.5 -36.1Q350.0 -36.1 352.5 -37.5Q355.0 -38.8 356.6 -40.8Q358.2 -42.8 359.0 -44.7Q359.8 -46.6 359.9 -47.8Q359.9 -48.5 360.8 -48.5Q362.2 -48.5 361.9 -46.8Q361.4 -42.8 358.9 -39.9Q356.4 -36.9 352.9 -35.2Q349.4 -33.6 345.7 -33.6Q341.3 -33.6 337.7 -35.2Q334.1 -36.9 332.0 -40.2Q329.8 -43.6 329.8 -48.5Q329.8 -55.0 333.3 -60.1Q336.8 -65.3 342.9 -68.9Q349.0 -72.5 356.9 -74.4Q364.8 -76.3 373.6 -76.3Q380.4 -76.3 387.3 -74.7Q394.2 -73.0 400.4 -69.7Q403.0 -72.6 405.8 -74.9Q408.5 -77.1 411.4 -78.3Q412.7 -78.8 413.5 -78.8Q414.1 -78.8 414.1 -78.5Q414.1 -78.0 411.8 -76.0Q410.5 -74.8 408.7 -72.3Q406.9 -69.9 405.0 -67.0Q411.0 -63.1 415.6 -57.5Q420.3 -52.0 423.0 -45.0Q425.7 -37.9 425.7 -29.3Q425.7 -20.9 422.8 -14.7Q419.9 -8.4 414.9 -4.3Q409.9 -0.2 403.4 1.9Q396.9 3.9 389.7 3.9Q381.2 3.9 374.0 1.6Q366.7 -0.7 360.5 -3.6Q355.6 0.3 350.4 2.3Q345.1 4.3 339.2 4.3ZM398.2 -56.3Q396.1 -53.0 393.1 -48.0Q390.1 -42.9 386.4 -37.0Q382.7 -31.1 378.7 -25.2Q374.7 -19.3 370.7 -14.2Q366.6 -9.0 362.8 -5.5Q368.1 -2.9 374.5 -1.0Q380.9 0.9 389.0 0.9Q398.2 0.9 405.0 -3.0Q411.8 -6.8 415.6 -13.5Q419.4 -20.1 419.4 -28.5Q419.4 -39.4 414.8 -48.4Q410.2 -57.3 402.5 -63.3Q401.2 -61.2 400.1 -59.4Q399.0 -57.5 398.2 -56.3ZM339.2 1.2Q344.3 1.5 349.1 -0.7Q354.0 -2.8 357.2 -5.3Q351.2 -8.2 346.2 -10.6Q341.1 -13.0 336.8 -13.0Q333.3 -13.0 331.4 -10.9Q329.5 -8.9 329.5 -6.4Q329.5 -3.2 332.1 -1.1Q334.6 1.0 339.2 1.2ZM453.4 0.3Q451.1 0.3 449.4 -1.0Q447.6 -2.3 447.6 -6.3Q447.6 -8.0 447.9 -9.5Q448.1 -11.0 448.5 -12.7Q447.6 -11.2 446.0 -9.0Q444.4 -6.8 442.5 -4.7Q440.5 -2.6 438.5 -1.2Q436.4 0.2 434.6 0.2Q432.0 0.2 430.4 -2.1Q428.8 -4.5 428.8 -8.3Q428.8 -12.4 430.7 -17.1Q432.6 -21.8 435.9 -26.1Q439.2 -30.4 443.5 -33.1Q447.8 -35.8 452.5 -35.8Q454.8 -35.8 456.9 -35.1Q459.0 -34.3 460.6 -32.6Q461.3 -31.9 461.3 -31.0Q461.3 -30.4 460.8 -30.0Q460.3 -29.6 459.5 -29.8Q458.4 -33.3 454.8 -33.3Q453.1 -33.3 450.9 -32.2Q448.2 -30.8 445.1 -27.8Q442.1 -24.7 439.5 -20.9Q436.8 -17.0 435.1 -13.1Q433.4 -9.2 433.4 -6.0Q433.4 -2.7 435.9 -2.7Q438.1 -2.7 440.5 -4.8Q442.8 -6.9 445.0 -10.1Q447.1 -13.2 448.9 -16.3Q450.7 -19.4 451.7 -21.3Q453.2 -24.0 454.5 -25.8Q455.8 -27.6 458.2 -27.6Q459.3 -27.6 460.4 -27.3Q461.5 -27.0 462.7 -27.2Q459.7 -24.2 457.4 -20.1Q455.2 -16.0 454.0 -12.1Q452.8 -8.1 452.8 -5.4Q452.8 -2.4 454.8 -2.4Q456.4 -2.4 458.2 -4.2Q460.1 -6.0 461.9 -8.8Q463.6 -11.5 465.1 -14.3Q466.6 -17.2 467.5 -19.3Q468.0 -19.3 468.4 -19.2Q468.7 -19.1 468.7 -18.4Q468.6 -18.0 468.4 -17.6Q468.1 -17.1 467.6 -16.0Q466.8 -14.4 465.4 -11.7Q464.0 -9.0 462.1 -6.2Q460.2 -3.5 458.0 -1.6Q455.8 0.3 453.4 0.3ZM457.9 0.8Q461.5 -6.5 464.8 -13.7Q468.1 -20.8 471.6 -27.3Q473.6 -30.9 475.0 -32.4Q476.4 -33.8 478.7 -33.8Q479.5 -33.8 480.4 -33.6Q481.3 -33.3 482.2 -33.3Q482.8 -33.3 483.1 -33.4Q481.7 -32.6 479.5 -29.5Q477.2 -26.3 474.9 -22.2Q472.6 -18.1 470.8 -14.5Q472.7 -16.8 474.8 -19.1Q476.9 -21.4 479.4 -23.5Q481.8 -25.6 485.1 -27.9Q488.5 -30.1 491.7 -31.6Q494.9 -33.1 496.8 -33.1Q497.5 -33.1 497.8 -33.0Q497.8 -33.0 496.7 -31.1Q495.6 -29.1 494.0 -26.0Q492.3 -22.8 490.6 -19.2Q488.9 -15.7 487.6 -12.5Q486.2 -9.2 485.8 -7.0Q485.5 -5.7 485.5 -4.6Q485.5 -3.0 486.1 -2.5Q486.7 -2.0 487.4 -2.0Q489.3 -2.0 491.3 -3.7Q493.3 -5.4 495.1 -8.1Q497.0 -10.7 498.6 -13.7Q500.2 -16.7 501.3 -19.3Q502.5 -19.3 502.5 -18.4Q501.4 -15.7 499.8 -12.5Q498.1 -9.2 496.1 -6.3Q494.0 -3.4 491.5 -1.5Q489.0 0.4 486.1 0.4Q484.1 0.4 482.0 -1.0Q479.8 -2.4 479.8 -6.2Q479.8 -7.3 480.0 -8.6Q480.2 -9.8 480.7 -11.3Q481.5 -13.3 482.6 -15.6Q483.7 -17.9 486.2 -21.9Q486.9 -23.0 487.1 -23.6Q487.2 -24.2 487.2 -24.6Q487.2 -25.8 486.1 -25.8Q485.2 -25.8 483.5 -24.8Q481.7 -23.8 479.1 -21.3Q476.6 -18.9 473.2 -14.5Q469.7 -10.1 465.2 -1.5Q464.5 -0.2 463.6 -0.1Q462.8 0.0 461.3 0.1Q460.3 0.2 459.4 0.2Q458.5 0.3 457.9 0.8ZM504.1 0.0Q500.4 0.0 498.9 -2.1Q497.4 -4.3 497.4 -7.1Q497.4 -8.6 497.8 -10.2Q498.1 -11.7 498.6 -13.0L505.3 -30.1Q505.6 -30.9 505.6 -31.5Q505.6 -32.5 505.1 -33.2Q504.6 -34.0 504.4 -34.3L509.9 -34.5Q511.4 -34.6 512.1 -34.2Q512.7 -33.7 512.7 -33.1Q512.7 -32.5 512.0 -30.9Q511.0 -28.5 509.3 -24.9Q507.6 -21.3 506.0 -17.5Q504.3 -13.7 503.2 -10.4Q502.0 -7.1 502.0 -5.3Q502.0 -4.0 502.7 -3.1Q503.3 -2.2 504.9 -2.2Q507.0 -2.2 509.1 -3.9Q511.1 -5.5 512.9 -8.1Q514.7 -10.7 516.2 -13.7Q517.8 -16.7 518.9 -19.3Q520.1 -19.3 520.1 -18.4Q519.1 -15.9 517.5 -12.7Q515.9 -9.5 513.9 -6.7Q511.8 -3.8 509.4 -1.9Q506.9 0.0 504.1 0.0ZM513.0 -40.7Q511.7 -40.7 510.8 -41.7Q509.8 -42.7 509.8 -44.1Q509.8 -45.8 511.2 -47.2Q512.6 -48.5 514.3 -48.5Q515.7 -48.5 516.7 -47.6Q517.7 -46.7 517.7 -45.3Q517.7 -43.5 516.3 -42.1Q514.9 -40.7 513.0 -40.7ZM526.1 0.4Q522.4 0.4 519.5 -2.0Q516.5 -4.4 516.5 -9.3Q516.5 -13.4 518.4 -18.0Q520.2 -22.6 523.2 -26.7Q526.3 -30.7 530.0 -33.2Q533.8 -35.8 537.6 -35.8Q539.5 -35.8 541.3 -34.7Q543.1 -33.6 543.1 -30.9Q543.1 -28.4 541.2 -25.4Q539.3 -22.4 535.8 -19.8Q534.3 -18.7 532.0 -17.7Q529.7 -16.7 527.4 -16.1Q525.1 -15.4 523.6 -15.4Q523.1 -14.2 522.7 -12.2Q522.2 -10.2 522.2 -8.1Q522.2 -5.6 523.2 -3.6Q524.2 -1.6 526.9 -1.6Q530.2 -1.6 533.0 -3.5Q535.9 -5.4 538.1 -8.3Q540.4 -11.2 542.0 -14.2Q543.6 -17.2 544.5 -19.3Q545.7 -19.3 545.7 -18.4Q544.4 -15.6 542.8 -12.3Q541.1 -9.0 538.9 -6.2Q536.6 -3.3 533.5 -1.5Q530.3 0.4 526.1 0.4ZM524.3 -17.2Q525.7 -17.2 529.0 -18.2Q532.3 -19.3 535.0 -21.6Q537.6 -23.9 539.0 -26.7Q540.4 -29.4 540.4 -31.3Q540.4 -33.5 538.8 -33.5Q537.6 -33.5 535.5 -31.9Q533.4 -30.3 530.3 -26.5Q528.4 -24.1 526.7 -21.3Q525.0 -18.5 524.3 -17.2ZM549.2 0.3Q545.5 0.3 543.8 -2.0Q542.0 -4.2 542.0 -7.3Q542.0 -10.5 542.9 -13.9Q543.8 -17.3 544.5 -19.6Q546.1 -25.2 548.5 -31.6Q551.0 -37.9 554.0 -44.0Q556.9 -50.2 559.8 -55.1Q562.1 -59.0 564.8 -61.0Q567.4 -62.9 569.4 -62.9Q571.0 -62.9 572.0 -61.8Q572.9 -60.6 572.9 -58.3Q572.9 -56.7 572.4 -54.5Q571.8 -52.3 570.5 -49.5Q567.0 -41.7 562.2 -33.9Q557.3 -26.1 549.9 -19.3Q548.7 -16.5 547.9 -13.3Q547.1 -10.1 547.1 -8.1Q547.1 -1.9 551.3 -1.9Q554.5 -1.9 558.4 -6.6Q562.3 -11.2 565.8 -19.3Q566.2 -19.3 566.6 -19.1Q567.0 -19.0 567.0 -18.4Q565.9 -15.7 564.2 -12.5Q562.6 -9.2 560.5 -6.3Q558.3 -3.4 555.5 -1.6Q552.7 0.3 549.2 0.3ZM550.7 -22.5Q554.3 -26.2 557.7 -31.1Q561.1 -35.9 564.0 -41.2Q567.0 -46.4 569.0 -51.1Q569.7 -52.6 570.2 -54.4Q570.6 -56.2 570.6 -57.4Q570.6 -58.8 569.9 -58.8Q569.5 -58.8 568.7 -58.1Q567.9 -57.3 566.6 -55.5Q564.7 -53.0 562.5 -48.7Q560.2 -44.4 557.9 -39.5Q555.6 -34.6 553.7 -30.1Q551.8 -25.5 550.7 -22.5Z"/>
</svg>